<svg width="132" height="132" viewBox="0 0 132 132" fill="none" xmlns="http://www.w3.org/2000/svg">
<circle cx="66" cy="66" r="66" fill="#FFBF00" fill-opacity="0.1"/>
<g clip-path="url(#clip0_1702_1560)">
<path d="M53.66 71.3323C51.147 73.8454 51.147 77.9211 53.66 80.4503C56.1731 82.9795 60.2489 82.9634 62.7781 80.4503L53.66 71.3323ZM43.3983 67.7399L36.9545 78.9038C37.921 79.4676 39.0487 79.7576 40.1764 79.7576C43.7366 79.7576 46.6202 76.874 46.6202 73.3138C46.6202 71.0262 45.3797 68.8836 43.3983 67.7399ZM55.6415 87.4902C52.0813 87.4902 49.1977 90.3738 49.1977 93.934C49.1977 94.4817 49.2621 95.0294 49.4071 95.5449L61.2315 90.696C60.0716 88.7306 57.9291 87.4902 55.6415 87.4902ZM34.3769 87.0713L27.9331 98.2352C28.9158 98.7991 30.0273 99.1051 31.155 99.1051C34.7152 99.1051 37.5988 96.2215 37.5988 92.6613C37.5988 90.3577 36.3584 88.2151 34.3769 87.0713ZM81.4168 28.207L86.5235 37.325L96.882 37.2284L91.6141 46.2497L96.882 55.2711L86.5235 55.1744L81.4168 64.2924L76.3101 55.1744L65.9516 55.2711L71.2195 46.2497L65.9516 37.2284L76.3101 37.325L81.4168 28.207Z" fill="#FFBF00"/>
<path d="M26.3061 100.716C26.1128 101.151 26 101.634 26 102.118C26 104.003 27.5304 105.533 29.4474 105.533C29.8985 105.533 30.3335 105.452 30.7684 105.275L72.0411 87.9574L44.9448 59.4435L26.3061 100.716ZM67.5948 87.0231L29.7696 102.891C29.6569 102.939 29.5602 102.955 29.4152 102.955C28.9642 102.955 28.5775 102.585 28.5775 102.118C28.5775 102.005 28.6097 101.876 28.6581 101.779L45.7181 63.9864L67.5948 87.0231ZM78.5654 51.2921L81.4168 56.3827L84.2682 51.2921L90.116 51.3404L87.1518 46.2498L90.116 41.1592L84.2682 41.2075L81.4168 36.1169L78.5654 41.2075L72.7177 41.1592L75.6818 46.2498L72.7177 51.3404L78.5654 51.2921ZM77.2284 43.7689L80.0797 43.8012L81.4168 41.4008L82.7539 43.8012L85.6053 43.7689L84.1555 46.2498L85.6053 48.7307L82.7539 48.6985L81.4168 51.0988L80.0797 48.6985L77.2284 48.7307L78.6782 46.2498L77.2284 43.7689ZM53.064 60.4262V59.6691C53.064 55.7061 51.9525 51.8398 49.8582 48.489C47.474 44.6711 43.9944 41.7552 39.8059 40.0799L39.3709 39.9027L38.4205 42.303L38.8554 42.4802C42.5284 43.9461 45.5892 46.5076 47.6834 49.8583C49.5199 52.8064 50.5026 56.2055 50.5026 59.6691V60.4262H53.064ZM82.1095 83.785C79.5159 81.1914 76.0685 79.7577 72.3955 79.7577H71.1067V82.3352H72.3955C75.3758 82.3352 78.1788 83.4951 80.2892 85.6054L80.7402 86.0565C82.8345 88.1507 83.9944 90.9538 83.9944 93.9341H86.5719C86.5719 90.2611 85.1381 86.8136 82.5445 84.22L82.1095 83.785ZM46.8941 42.2224L51.7753 39.516L56.6565 42.2224L55.7221 36.5196L59.6045 32.5567L54.24 31.7351L51.7753 26.4834L49.3105 31.7351L43.946 32.5567L47.8284 36.5196L46.8941 42.2224ZM51.0503 34.071L51.7753 32.5406L52.5002 34.071L54.2561 34.3449L52.9835 35.6658L53.2735 37.4218L51.7914 36.6002L50.3093 37.4218L50.5993 35.6658L49.3105 34.3449L51.0503 34.071ZM106 73.781L100.636 72.9594L98.1708 67.7077L95.706 72.9594L90.3415 73.781L94.2239 77.744L93.2896 83.4467L98.1708 80.7565L103.052 83.4629L102.118 77.7601L106 73.781ZM99.6528 78.63L98.1708 77.8084L96.6887 78.63L96.9787 76.8741L95.706 75.5531L97.4619 75.2792L98.1869 73.7488L98.9118 75.2792L100.668 75.5531L99.3951 76.8741L99.6528 78.63ZM54.7233 59.5241L56.5437 61.3445L57.5264 60.3618C59.6367 58.2514 60.7966 55.4484 60.7966 52.4681C60.7966 48.9723 59.1212 45.6376 56.3343 43.5434L55.1261 42.6413L53.5795 44.7033L54.7878 45.6054C56.9303 47.2164 58.2191 49.7778 58.2191 52.4681C58.2191 54.7557 57.3331 56.9143 55.706 58.5414L54.7233 59.5241ZM88.1023 73.0239C85.7986 70.7202 82.7378 69.4475 79.4837 69.4475C76.2296 69.4475 73.1687 70.7202 70.8651 73.0078L70.1885 73.6844L72.0089 75.5047L72.6855 74.8281C74.5058 73.0078 76.9062 72.009 79.4676 72.009C82.029 72.009 84.4454 73.0078 86.2497 74.8281L86.9263 75.5047L88.7467 73.6844L88.1023 73.0239ZM32.4438 33.3622H35.0213V37.2285H32.4438V33.3622ZM27.3519 36.5507L29.1745 34.7281L31.9083 37.4619L30.0859 39.2845L27.3519 36.5507ZM26 39.806H29.8663V42.3835H26V39.806ZM27.3642 45.6501L30.0979 42.9163L31.9206 44.7387L29.1868 47.4725L27.3642 45.6501ZM32.4438 44.961H35.0213V48.8273H32.4438V44.961ZM35.5636 44.7399L37.3861 42.9172L40.12 45.651L38.2975 47.4736L35.5636 44.7399ZM35.5486 37.4633L38.2824 34.7294L40.1052 36.552L37.3714 39.2858L35.5486 37.4633ZM78.9137 93.2467L80.7362 91.424L83.4702 94.1578L81.6475 95.9805L78.9137 93.2467ZM77.5505 96.5116H81.4168V99.0891H77.5505V96.5116ZM78.9037 102.366L81.6377 99.632L83.4603 101.454L80.7265 104.188L78.9037 102.366ZM83.9944 101.667H86.5719V105.533H83.9944V101.667ZM87.1008 101.456L88.9232 99.6333L91.657 102.367L89.8345 104.19L87.1008 101.456ZM89.1494 96.5116H93.0157V99.0891H89.1494V96.5116ZM87.1 94.1681L89.8337 91.4343L91.6564 93.2568L88.9226 95.9908L87.1 94.1681Z" fill="#2C363F"/>
</g>
<defs>
<clipPath id="clip0_1702_1560">
<rect width="80" height="80" fill="white" transform="translate(26 26)"/>
</clipPath>
</defs>
</svg>
