<svg width="93" height="16" viewBox="0 0 93 16" fill="none" xmlns="http://www.w3.org/2000/svg">
<path d="M7.25723 0.518691C7.53202 -0.172898 8.46793 -0.172897 8.74273 0.518693L10.3645 4.60057C10.4805 4.89213 10.7424 5.09134 11.0431 5.11657L15.2528 5.46986C15.966 5.52972 16.2552 6.46148 15.7118 6.94876L12.5045 9.82475C12.2754 10.0302 12.1753 10.3526 12.2453 10.6597L13.2252 14.9599C13.3912 15.6885 12.6341 16.2644 12.0234 15.874L8.4193 13.5695C8.16186 13.4049 7.8381 13.4049 7.58067 13.5695L3.97653 15.874C3.36588 16.2644 2.60871 15.6885 2.77473 14.9599L3.75464 10.6597C3.82463 10.3526 3.72458 10.0302 3.4955 9.82475L0.288101 6.94876C-0.255323 6.46148 0.033893 5.52972 0.747147 5.46986L4.9569 5.11657C5.25759 5.09134 5.51953 4.89213 5.63537 4.60057L7.25723 0.518691Z" fill="#F1BD42"/>
<path d="M27.2572 0.518691C27.532 -0.172898 28.4679 -0.172897 28.7427 0.518693L30.3645 4.60057C30.4805 4.89213 30.7424 5.09134 31.0431 5.11657L35.2528 5.46986C35.966 5.52972 36.2552 6.46148 35.7118 6.94876L32.5045 9.82475C32.2754 10.0302 32.1753 10.3526 32.2453 10.6597L33.2252 14.9599C33.3912 15.6885 32.6341 16.2644 32.0234 15.874L28.4193 13.5695C28.1619 13.4049 27.8381 13.4049 27.5807 13.5695L23.9765 15.874C23.3659 16.2644 22.6087 15.6885 22.7747 14.9599L23.7546 10.6597C23.8246 10.3526 23.7246 10.0302 23.4955 9.82475L20.2881 6.94876C19.7447 6.46148 20.0339 5.52972 20.7471 5.46986L24.9569 5.11657C25.2576 5.09134 25.5195 4.89213 25.6354 4.60057L27.2572 0.518691Z" fill="#F1BD42"/>
<path d="M47.2572 0.518691C47.532 -0.172898 48.4679 -0.172897 48.7427 0.518693L50.3645 4.60057C50.4805 4.89213 50.7424 5.09134 51.0431 5.11657L55.2528 5.46986C55.966 5.52972 56.2552 6.46148 55.7118 6.94876L52.5045 9.82475C52.2754 10.0302 52.1753 10.3526 52.2453 10.6597L53.2252 14.9599C53.3912 15.6885 52.6341 16.2644 52.0234 15.874L48.4193 13.5695C48.1619 13.4049 47.8381 13.4049 47.5807 13.5695L43.9765 15.874C43.3659 16.2644 42.6087 15.6885 42.7747 14.9599L43.7546 10.6597C43.8246 10.3526 43.7246 10.0302 43.4955 9.82475L40.2881 6.94876C39.7447 6.46148 40.0339 5.52972 40.7471 5.46986L44.9569 5.11657C45.2576 5.09134 45.5195 4.89213 45.6354 4.60057L47.2572 0.518691Z" fill="#F1BD42"/>
<path d="M67.2572 0.518691C67.532 -0.172898 68.4679 -0.172897 68.7427 0.518693L70.3645 4.60057C70.4805 4.89213 70.7424 5.09134 71.0431 5.11657L75.2528 5.46986C75.966 5.52972 76.2552 6.46148 75.7118 6.94876L72.5045 9.82475C72.2754 10.0302 72.1753 10.3526 72.2453 10.6597L73.2252 14.9599C73.3912 15.6885 72.6341 16.2644 72.0234 15.874L68.4193 13.5695C68.1619 13.4049 67.8381 13.4049 67.5807 13.5695L63.9765 15.874C63.3659 16.2644 62.6087 15.6885 62.7747 14.9599L63.7546 10.6597C63.8246 10.3526 63.7246 10.0302 63.4955 9.82475L60.2881 6.94876C59.7447 6.46148 60.0339 5.52972 60.7471 5.46986L64.9569 5.11657C65.2576 5.09134 65.5195 4.89213 65.6354 4.60057L67.2572 0.518691Z" fill="#F1BD42"/>
<g clip-path="url(#clip0_3734_4305)">
<path d="M87.2572 0.518691C87.532 -0.172898 88.4679 -0.172897 88.7427 0.518693L90.3645 4.60057C90.4805 4.89213 90.7424 5.09134 91.0431 5.11657L95.2528 5.46986C95.966 5.52972 96.2552 6.46148 95.7118 6.94876L92.5045 9.82475C92.2754 10.0302 92.1753 10.3526 92.2453 10.6597L93.2252 14.9599C93.3912 15.6885 92.6341 16.2644 92.0234 15.874L88.4193 13.5695C88.1619 13.4049 87.8381 13.4049 87.5807 13.5695L83.9765 15.874C83.3659 16.2644 82.6087 15.6885 82.7747 14.9599L83.7546 10.6597C83.8246 10.3526 83.7246 10.0302 83.4955 9.82475L80.2881 6.94876C79.7447 6.46148 80.0339 5.52972 80.7471 5.46986L84.9569 5.11657C85.2576 5.09134 85.5195 4.89213 85.6354 4.60057L87.2572 0.518691Z" fill="#F1BD42"/>
</g>
<defs>
<clipPath id="clip0_3734_4305">
<rect width="13" height="16" fill="white" transform="translate(80)"/>
</clipPath>
</defs>
</svg>
