<svg width="24" height="24" viewBox="0 0 24 24" fill="none" xmlns="http://www.w3.org/2000/svg">
<g clip-path="url(#clip0_8524_5740)">
<path d="M16.7865 8.21338L12.8465 12.0867C12.4214 11.882 11.9377 11.8341 11.4808 11.9515C11.0239 12.0689 10.6232 12.344 10.3495 12.7283C10.0758 13.1125 9.94676 13.5811 9.98515 14.0513C10.0235 14.5215 10.2269 14.963 10.5593 15.2978C10.8917 15.6325 11.3318 15.839 11.8017 15.8807C12.2716 15.9224 12.7411 15.7967 13.1273 15.5257C13.5135 15.2548 13.7914 14.856 13.912 14.3999C14.0327 13.9439 13.9882 13.4598 13.7865 13.0334L17.7331 9.16005L16.7865 8.21338Z" fill="white"/>
<path d="M12.0001 2.8335C9.90189 2.8311 7.84683 3.42919 6.07762 4.55715C4.30841 5.68511 2.89894 7.29581 2.01568 9.19903C1.13241 11.1023 0.812254 13.2185 1.09301 15.2978C1.37376 17.3771 2.24369 19.3327 3.60008 20.9335L3.80008 21.1668H20.2001L20.4001 20.9335C21.7565 19.3327 22.6264 17.3771 22.9071 15.2978C23.1879 13.2185 22.8677 11.1023 21.9845 9.19903C21.1012 7.29581 19.6917 5.68511 17.9225 4.55715C16.1533 3.42919 14.0983 2.8311 12.0001 2.8335ZM19.5601 19.8335H4.44008C3.24386 18.3366 2.5219 16.5167 2.36674 14.6068H4.66674V13.2735H2.36674C2.47789 11.1565 3.28661 9.13591 4.66674 7.52684L6.30008 9.16017L7.24008 8.22017L5.62008 6.58017C7.20865 5.17543 9.21764 4.3362 11.3334 4.1935V6.52684H12.6667V4.20017C15.0037 4.36965 17.1991 5.38392 18.843 7.05358C20.4869 8.72325 21.467 10.9342 21.6001 13.2735H19.2801V14.6068H21.6334C21.4782 16.5167 20.7563 18.3366 19.5601 19.8335Z" fill="white"/>
</g>
<defs>
<clipPath id="clip0_8524_5740">
<rect width="24" height="24" fill="white"/>
</clipPath>
</defs>
</svg>
