<svg width="48" height="50" viewBox="0 0 48 50" fill="none" xmlns="http://www.w3.org/2000/svg">
<rect x="0.5" y="0.5" width="47" height="49" rx="3.5" fill="#2C363F"/>
<rect x="0.5" y="0.5" width="47" height="49" rx="3.5" stroke="#2C363F"/>
<path d="M27 23.5C27 24.2956 26.6839 25.0587 26.1213 25.6213C25.5587 26.1839 24.7956 26.5 24 26.5C23.2044 26.5 22.4413 26.1839 21.8787 25.6213C21.3161 25.0587 21 24.2956 21 23.5C21 22.7044 21.3161 21.9413 21.8787 21.3787C22.4413 20.8161 23.2044 20.5 24 20.5C24.7956 20.5 25.5587 20.8161 26.1213 21.3787C26.6839 21.9413 27 22.7044 27 23.5Z" stroke="white" stroke-width="1.5" stroke-linecap="round" stroke-linejoin="round"/>
<path d="M31.5 23.5C31.5 30.642 24 34.75 24 34.75C24 34.75 16.5 30.642 16.5 23.5C16.5 21.5109 17.2902 19.6032 18.6967 18.1967C20.1032 16.7902 22.0109 16 24 16C25.9891 16 27.8968 16.7902 29.3033 18.1967C30.7098 19.6032 31.5 21.5109 31.5 23.5Z" stroke="white" stroke-width="1.5" stroke-linecap="round" stroke-linejoin="round"/>
</svg>
