<svg width="188" height="74" viewBox="0 0 188 74" fill="none" xmlns="http://www.w3.org/2000/svg">
<g clip-path="url(#clip0_6279_569)">
<path d="M21.671 0H0V57.5374H13.086V39.4563H21.671C32.9574 39.4563 41.7054 30.6632 41.7054 19.73C41.7054 8.79683 32.9536 0 21.671 0ZM175.732 16.4398V20.3013C173.035 17.1786 169.026 15.2859 163.548 15.2859C152.834 15.2859 144.002 24.7378 144.002 36.9848C144.002 49.2318 152.834 58.6836 163.548 58.6836C169.026 58.6836 173.035 56.791 175.732 53.6683V57.5297H188V16.4398H175.732ZM166.003 26.7713C166.109 26.7713 166.215 26.7713 166.325 26.7751C166.427 26.9922 166.621 27.1445 166.856 27.1674C167.09 27.1902 167.31 27.0721 167.45 26.8741C167.663 26.9046 167.875 26.9427 168.083 26.9846C168.148 27.2169 168.31 27.4035 168.538 27.4644C168.765 27.5291 169.004 27.4492 169.174 27.2778C169.379 27.3463 169.58 27.4187 169.777 27.4987C169.799 27.7386 169.928 27.9518 170.144 28.0508C170.36 28.1537 170.606 28.1156 170.803 27.9785C170.993 28.0813 171.178 28.1879 171.36 28.3022C171.341 28.5421 171.432 28.7744 171.625 28.9077C171.819 29.0448 172.069 29.0524 172.285 28.9534C172.455 29.0867 172.618 29.2276 172.777 29.3723C172.717 29.6046 172.77 29.8483 172.933 30.0159C173.099 30.1834 173.342 30.2367 173.573 30.1758C173.717 30.3357 173.853 30.5033 173.99 30.6709C173.891 30.8879 173.899 31.1393 174.031 31.3335C174.168 31.5277 174.399 31.6229 174.637 31.6038C174.751 31.7866 174.857 31.9732 174.959 32.1636C174.823 32.3617 174.785 32.6092 174.887 32.8225C174.986 33.0395 175.198 33.169 175.441 33.1918C175.52 33.3899 175.592 33.5955 175.66 33.7973C175.49 33.9687 175.414 34.2048 175.475 34.4333C175.535 34.6656 175.721 34.8294 175.952 34.8941C175.998 35.1035 176.032 35.3168 176.062 35.5301C175.865 35.671 175.751 35.888 175.77 36.1241C175.789 36.3602 175.945 36.5583 176.16 36.6611C176.16 36.7677 176.168 36.8781 176.168 36.9886C176.168 37.099 176.168 37.2056 176.164 37.3123C175.948 37.4151 175.797 37.6093 175.774 37.8454C175.751 38.0815 175.869 38.3024 176.066 38.4433C176.035 38.6565 175.998 38.8698 175.956 39.0793C175.725 39.144 175.539 39.3077 175.479 39.5362C175.418 39.7647 175.494 40.0046 175.664 40.176C175.596 40.3816 175.524 40.5835 175.444 40.7815C175.206 40.8043 174.994 40.9338 174.895 41.1509C174.793 41.3679 174.831 41.6155 174.967 41.8135C174.865 42.0039 174.759 42.1905 174.645 42.3733C174.406 42.3543 174.175 42.4457 174.039 42.6399C173.902 42.8341 173.895 43.0816 173.997 43.3025C173.865 43.4739 173.724 43.6376 173.58 43.7976C173.349 43.7366 173.107 43.7899 172.94 43.9537C172.773 44.1212 172.72 44.365 172.781 44.5973C172.622 44.742 172.455 44.8791 172.288 45.0162C172.073 44.9171 171.822 44.9248 171.629 45.058C171.436 45.1951 171.345 45.4236 171.364 45.6674C171.182 45.7816 170.997 45.8882 170.807 45.991C170.61 45.8539 170.364 45.8197 170.152 45.9187C169.936 46.0177 169.807 46.231 169.784 46.4709C169.587 46.5508 169.383 46.6232 169.182 46.6917C169.011 46.5204 168.776 46.4442 168.545 46.5051C168.318 46.5661 168.151 46.7527 168.087 46.985C167.879 47.0307 167.666 47.0649 167.45 47.0954C167.31 46.9012 167.094 46.7831 166.859 46.8022C166.624 46.8212 166.431 46.9774 166.329 47.1944C166.223 47.1944 166.113 47.202 166.003 47.202C165.893 47.202 165.787 47.202 165.681 47.1982C165.579 46.9812 165.382 46.8288 165.151 46.806C164.916 46.7831 164.696 46.9012 164.56 47.0992C164.347 47.0688 164.135 47.0307 163.923 46.9888C163.859 46.7565 163.696 46.5699 163.469 46.509C163.241 46.448 163.003 46.5242 162.832 46.6956C162.627 46.627 162.427 46.5547 162.226 46.4747C162.203 46.2348 162.074 46.0215 161.858 45.9225C161.646 45.8235 161.4 45.8578 161.199 45.9949C161.01 45.892 160.824 45.7854 160.642 45.6712C160.661 45.4312 160.57 45.1989 160.377 45.0657C160.184 44.9286 159.938 44.921 159.718 45.0238C159.547 44.8905 159.384 44.7496 159.225 44.6049C159.286 44.3726 159.233 44.1289 159.066 43.9613C158.899 43.7937 158.657 43.7442 158.426 43.8014C158.282 43.6414 158.146 43.4739 158.009 43.3063C158.108 43.0892 158.1 42.8379 157.967 42.6437C157.831 42.4495 157.604 42.3581 157.365 42.3771C157.251 42.1943 157.145 42.0077 157.043 41.8173C157.179 41.6193 157.213 41.3718 157.115 41.1585C157.016 40.9414 156.804 40.812 156.566 40.7891C156.486 40.5911 156.414 40.3854 156.346 40.1798C156.516 40.0084 156.592 39.7723 156.532 39.54C156.471 39.3115 156.285 39.144 156.054 39.0793C156.009 38.8698 155.975 38.6565 155.944 38.4395C156.138 38.2986 156.255 38.0815 156.236 37.8454C156.217 37.6093 156.062 37.4151 155.846 37.3123C155.846 37.2018 155.838 37.0952 155.838 36.9848C155.838 36.8743 155.838 36.7677 155.842 36.6611C156.058 36.5583 156.209 36.3602 156.232 36.1241C156.251 35.888 156.134 35.671 155.941 35.5301C155.971 35.3168 156.009 35.1035 156.05 34.8941C156.281 34.8294 156.467 34.6656 156.528 34.4333C156.588 34.2048 156.513 33.9687 156.342 33.7935C156.41 33.5879 156.482 33.3861 156.562 33.1842C156.801 33.1614 157.013 33.0319 157.111 32.8148C157.21 32.6016 157.176 32.3541 157.039 32.156C157.142 31.9656 157.248 31.779 157.361 31.5962C157.6 31.6153 157.831 31.5239 157.967 31.3297C158.104 31.1354 158.111 30.8879 158.009 30.667C158.142 30.4957 158.282 30.3319 158.426 30.172C158.657 30.2329 158.899 30.1796 159.066 30.012C159.233 29.8445 159.282 29.6008 159.221 29.3685C159.381 29.2238 159.547 29.0867 159.714 28.9496C159.934 29.0486 160.18 29.041 160.373 28.9039C160.566 28.7668 160.657 28.5383 160.638 28.2946C160.82 28.1803 161.006 28.0737 161.195 27.9709C161.392 28.108 161.639 28.1422 161.855 28.0432C162.067 27.9442 162.199 27.731 162.222 27.491C162.419 27.4111 162.624 27.3387 162.828 27.2702C162.999 27.4415 163.237 27.5177 163.465 27.4568C163.692 27.3958 163.859 27.2092 163.919 26.9769C164.128 26.9312 164.34 26.897 164.552 26.8665C164.692 27.0645 164.908 27.1826 165.143 27.1597C165.378 27.1407 165.571 26.9846 165.674 26.7675C165.783 26.7675 165.889 26.7599 165.999 26.7599L166.003 26.7713ZM141.729 28.2755V16.4398H133.307V4.93156L121.04 8.62927V16.4398H114.497V28.2755H121.04V42.8227C121.04 54.3309 125.881 58.3371 141.729 57.5374V46.3604C136.33 46.6879 133.307 46.3604 133.307 42.8265V28.2793H141.729V28.2755ZM99.2283 16.4398V38.8774C99.2283 44.7115 96.1216 47.3429 91.6245 47.3429C87.6995 47.3429 84.5094 44.959 84.5094 39.8637V16.4398H72.2418V41.6726C72.2418 52.7696 79.2735 58.6874 87.5328 58.6874C92.9316 58.6874 97.0195 56.7148 99.2283 53.6721V57.5336H111.496V16.4398H99.2283ZM57.091 23.7552V16.4398H44.8234V57.5374H57.091V38.9612C57.091 30.8232 64.2857 28.7706 69.3587 29.5893V16.4398C64.2061 16.4398 58.7277 18.2487 57.091 23.7552ZM21.2505 9.82884C21.3528 9.82884 21.4513 9.82884 21.5536 9.83265C21.6521 10.0383 21.8339 10.183 22.0537 10.202C22.2772 10.2211 22.4818 10.1106 22.6144 9.92404C22.8152 9.95451 23.016 9.98878 23.213 10.0307C23.2736 10.2515 23.429 10.4267 23.6449 10.4838C23.8609 10.5448 24.0844 10.4686 24.2473 10.3087C24.4405 10.3734 24.63 10.442 24.8194 10.5181C24.8383 10.7466 24.9634 10.9446 25.1642 11.0398C25.3687 11.135 25.5999 11.1008 25.7855 10.9713C25.9636 11.0665 26.1416 11.1693 26.3121 11.2759C26.2932 11.5044 26.3803 11.7215 26.5622 11.851C26.744 11.9804 26.9789 11.9881 27.1873 11.8929C27.3464 12.0185 27.5018 12.1518 27.6533 12.2889C27.5965 12.5098 27.6457 12.7383 27.8011 12.8982C27.9602 13.0582 28.1875 13.1077 28.4072 13.0467C28.5436 13.1991 28.6724 13.3552 28.8013 13.5151C28.7065 13.7208 28.7141 13.9569 28.8429 14.1397C28.9717 14.3263 29.1877 14.4139 29.415 14.3948C29.5211 14.5662 29.6234 14.7452 29.7181 14.9241C29.5893 15.1107 29.5552 15.3469 29.6499 15.5487C29.7446 15.7543 29.9454 15.8762 30.1727 15.899C30.2485 16.0856 30.3167 16.2798 30.3811 16.4741C30.222 16.6378 30.1462 16.8587 30.2031 17.0758C30.2599 17.2928 30.4379 17.4489 30.6577 17.5099C30.6994 17.7079 30.7335 17.9097 30.7638 18.1116C30.5781 18.2449 30.4683 18.4505 30.4872 18.6714C30.5061 18.896 30.6501 19.0788 30.8547 19.1779C30.8547 19.2807 30.8585 19.3835 30.8585 19.4863C30.8585 19.5891 30.8585 19.6881 30.8547 19.791C30.6501 19.89 30.5061 20.0728 30.4872 20.2974C30.4683 20.5221 30.5781 20.7278 30.7638 20.8611C30.7335 21.0629 30.6994 21.2647 30.6577 21.4627C30.4379 21.5237 30.2637 21.6798 30.2068 21.8969C30.1462 22.1139 30.222 22.3386 30.3811 22.5024C30.3167 22.6966 30.2485 22.887 30.1727 23.0774C29.9454 23.0964 29.7446 23.2221 29.6537 23.4239C29.559 23.6296 29.5931 23.8619 29.7219 24.0485C29.6272 24.2275 29.5249 24.4064 29.415 24.5778C29.1877 24.5588 28.9717 24.6464 28.8429 24.8291C28.7141 25.0119 28.7065 25.248 28.8013 25.4575C28.6762 25.6174 28.5436 25.7736 28.4072 25.9259C28.1875 25.8688 27.9602 25.9183 27.8011 26.0744C27.6419 26.2344 27.5965 26.4628 27.6533 26.6837C27.5018 26.8208 27.3464 26.9503 27.1873 27.0798C26.9827 26.9846 26.7478 26.9922 26.566 27.1217C26.3841 27.2511 26.297 27.4682 26.3121 27.6967C26.1416 27.8033 25.9636 27.9061 25.7855 28.0051C25.5999 27.8757 25.365 27.8414 25.1642 27.9366C24.9596 28.0318 24.8383 28.2336 24.8156 28.4583C24.6262 28.5345 24.4367 28.603 24.2435 28.6678C24.0806 28.5078 23.8609 28.4317 23.6449 28.4926C23.429 28.5497 23.2736 28.7249 23.213 28.9458C23.016 28.9877 22.8152 29.0219 22.6144 29.0524C22.4818 28.8658 22.2772 28.7554 22.0537 28.7744C21.8302 28.7934 21.6483 28.9381 21.5498 29.1438C21.4475 29.1438 21.3452 29.1476 21.2429 29.1476C21.1406 29.1476 21.0383 29.1476 20.9398 29.1438C20.8413 28.9381 20.6595 28.7934 20.4359 28.7744C20.2124 28.7554 20.0078 28.8658 19.8752 29.0524C19.6744 29.0219 19.4736 28.9877 19.2766 28.9458C19.216 28.7249 19.0607 28.5497 18.8447 28.4926C18.6288 28.4355 18.4052 28.5078 18.2423 28.6678C18.0491 28.603 17.8597 28.5345 17.6702 28.4583C17.6475 28.2298 17.5263 28.0318 17.3255 27.9366C17.1247 27.8414 16.8898 27.8757 16.7041 28.0051C16.5261 27.9099 16.348 27.8071 16.1775 27.6967C16.1964 27.4682 16.1093 27.2511 15.9275 27.1217C15.7456 26.9922 15.5107 26.9846 15.3061 27.0798C15.147 26.9541 14.9917 26.8208 14.8401 26.6837C14.8969 26.4628 14.8477 26.2344 14.6924 26.0744C14.537 25.9145 14.3059 25.8688 14.0862 25.9259C13.9498 25.7736 13.821 25.6174 13.6922 25.4575C13.7869 25.2519 13.7793 25.0157 13.6505 24.833C13.5217 24.6502 13.3057 24.5626 13.0784 24.5816C12.9723 24.4103 12.87 24.2313 12.7715 24.0523C12.9003 23.8657 12.9344 23.6296 12.8397 23.4277C12.745 23.2259 12.5442 23.1002 12.3207 23.0812C12.2449 22.8946 12.1767 22.7004 12.1123 22.5062C12.2714 22.3424 12.3472 22.1177 12.2866 21.9007C12.2297 21.6836 12.0517 21.5275 11.8357 21.4665C11.794 21.2685 11.7599 21.0667 11.7296 20.8649C11.9153 20.7316 12.0251 20.5259 12.0062 20.3013C11.9873 20.0766 11.8433 19.8938 11.6387 19.7948C11.6387 19.692 11.6349 19.5891 11.6349 19.4863C11.6349 19.3835 11.6349 19.2845 11.6387 19.1817C11.8433 19.0826 11.9873 18.8999 12.0062 18.6752C12.0251 18.4543 11.9153 18.2449 11.7296 18.1116C11.7599 17.9097 11.794 17.7079 11.8357 17.5099C12.0555 17.4489 12.2297 17.2928 12.2866 17.0758C12.3434 16.8587 12.2714 16.634 12.1123 16.4741C12.1767 16.2798 12.2449 16.0894 12.3207 15.899C12.548 15.8762 12.7488 15.7543 12.8397 15.5487C12.9344 15.3469 12.9003 15.1107 12.7715 14.9241C12.8662 14.7452 12.9685 14.5662 13.0784 14.3948C13.3057 14.4139 13.5217 14.3263 13.6505 14.1435C13.7793 13.9607 13.7869 13.7246 13.6922 13.5189C13.8172 13.359 13.9498 13.2029 14.0862 13.0505C14.3059 13.1077 14.5332 13.0582 14.6924 12.902C14.8515 12.7459 14.8969 12.5136 14.8401 12.2927C14.9917 12.1556 15.147 12.0261 15.3061 11.8967C15.5107 11.9919 15.7456 11.9843 15.9275 11.8548C16.1093 11.7253 16.1964 11.5082 16.1775 11.2797C16.348 11.1731 16.5261 11.0703 16.7041 10.9713C16.8898 11.1008 17.1247 11.135 17.3255 11.0398C17.5263 10.9446 17.6513 10.7428 17.6702 10.5181C17.8559 10.442 18.0491 10.3734 18.2423 10.3087C18.4052 10.4686 18.6288 10.5448 18.8447 10.4838C19.0607 10.4267 19.216 10.2477 19.2766 10.0307C19.4736 9.98878 19.6744 9.95451 19.8752 9.92404C20.0078 10.1106 20.2124 10.2211 20.4359 10.202C20.6595 10.183 20.8413 10.0383 20.9398 9.83265C21.0421 9.83265 21.1444 9.82884 21.2467 9.82884H21.2505Z" fill="white"/>
<path fill-rule="evenodd" clip-rule="evenodd" d="M0 64.2968H188V74H0V64.2968Z" fill="#FFBF00"/>
</g>
<defs>
<clipPath id="clip0_6279_569">
<rect width="188" height="74" fill="white"/>
</clipPath>
</defs>
</svg>
